<?xml version="1.0" encoding="UTF-8"?>
<!-- Generated by Pixelmator Pro 4.0 -->
<svg width="1024" height="1024" viewBox="175 175 674 674" xmlns="http://www.w3.org/2000/svg">
    <path id="Path" fill="#171717" stroke="none" d="M 300 289 C 300 258.072021 325.071991 233 356 233 L 668 233 C 698.927979 233 724 258.072021 724 289 L 724 655 C 724 679.312012 710.14801 701.5 688.286011 712.200012 L 536.286011 786.599976 C 520.961792 794.090942 503.038208 794.090942 487.713989 786.599976 L 335.713989 712.200012 C 313.85199 701.5 300 679.312012 300 655 Z"/>
    <path id="path1" fill="#ffffff" stroke="none" d="M 361 352 L 663 352 C 667.970581 352 672 356.029419 672 361 L 672 361 C 672 365.970581 667.970581 370 663 370 L 361 370 C 356.029449 370 352 365.970581 352 361 L 352 361 C 352 356.029419 356.029449 352 361 352 Z"/>
    <path id="path2" fill="#ffffff" stroke="none" d="M 426 475 C 435.372986 465.627014 450.627014 465.627014 460 475 L 512 527 L 564 475 C 573.372986 465.627014 588.627014 465.627014 598 475 C 607.372986 484.372986 607.372986 499.627014 598 509 L 546 561 L 598 613 C 607.372986 622.372986 607.372986 637.627014 598 647 C 588.627014 656.372986 573.372986 656.372986 564 647 L 512 595 L 460 647 C 450.627014 656.372986 435.372986 656.372986 426 647 C 416.627014 637.627014 416.627014 622.372986 426 613 L 478 561 L 426 509 C 416.627014 499.627014 416.627014 484.372986 426 475"/>
</svg>
